<svg xmlns="http://www.w3.org/2000/svg" xmlns:xlink="http://www.w3.org/1999/xlink" width="50" zoomAndPan="magnify" viewBox="0 0 37.5 37.499999" height="50" preserveAspectRatio="xMidYMid meet" version="1.0"><defs><clipPath id="f82b43e53a"><path d="M 9.699219 12 L 27.464844 12 L 27.464844 25 L 9.699219 25 Z M 9.699219 12 " clip-rule="nonzero"/></clipPath></defs><g clip-path="url(#f82b43e53a)"><path fill="#000000" d="M 10.730469 12 L 10.734375 12 C 11.039062 12 11.328125 12.152344 11.5 12.402344 L 18.4375 22.542969 C 18.46875 22.585938 18.535156 22.585938 18.566406 22.542969 L 25.503906 12.402344 C 25.679688 12.152344 25.964844 12 26.269531 12 C 27.023438 12 27.464844 12.847656 27.03125 13.464844 L 19.257812 24.472656 C 18.890625 25 18.113281 25 17.742188 24.472656 L 9.972656 13.464844 C 9.539062 12.847656 9.980469 12 10.730469 12 Z M 10.730469 12 " fill-opacity="1" fill-rule="nonzero"/><path fill="#000000" d="M 10.730469 12 L 10.734375 12 C 11.039062 12 11.328125 12.152344 11.5 12.402344 L 18.4375 22.542969 C 18.46875 22.585938 18.535156 22.585938 18.566406 22.542969 L 25.503906 12.402344 C 25.679688 12.152344 25.964844 12 26.269531 12 C 27.023438 12 27.464844 12.847656 27.03125 13.464844 L 19.257812 24.472656 C 18.890625 25 18.113281 25 17.742188 24.472656 L 9.972656 13.464844 C 9.539062 12.847656 9.980469 12 10.730469 12 Z M 10.730469 12 " fill-opacity="1" fill-rule="nonzero"/></g></svg>